<svg width="1920" height="1080" viewBox="0 0 1920 1080" xmlns="http://www.w3.org/2000/svg">
  <defs>
    <!-- Gradient definitions -->
    <radialGradient id="moonGlow" cx="80%" cy="15%" r="25%">
      <stop offset="0%" style="stop-color:#fff8dc;stop-opacity:0.8" />
      <stop offset="30%" style="stop-color:#daa520;stop-opacity:0.6" />
      <stop offset="100%" style="stop-color:#8b7355;stop-opacity:0.2" />
    </radialGradient>
    
    <linearGradient id="nightSky" x1="0%" y1="0%" x2="0%" y2="100%">
      <stop offset="0%" style="stop-color:#0f0a08" />
      <stop offset="40%" style="stop-color:#2c1810" />
      <stop offset="80%" style="stop-color:#4a2c1a" />
      <stop offset="100%" style="stop-color:#6b3e2a" />
    </linearGradient>
    
    <linearGradient id="forestGrad" x1="0%" y1="100%" x2="0%" y2="0%">
      <stop offset="0%" style="stop-color:#1a0f0a" />
      <stop offset="50%" style="stop-color:#2d1b13" />
      <stop offset="100%" style="stop-color:#4a2c1a;stop-opacity:0.8" />
    </linearGradient>
    
    <linearGradient id="castleGrad" x1="0%" y1="100%" x2="0%" y2="0%">
      <stop offset="0%" style="stop-color:#0a0705" />
      <stop offset="100%" style="stop-color:#1f1410" />
    </linearGradient>
    
    <radialGradient id="fireGlow" cx="50%" cy="50%" r="50%">
      <stop offset="0%" style="stop-color:#ff4500;stop-opacity:0.9" />
      <stop offset="50%" style="stop-color:#ffa500;stop-opacity:0.7" />
      <stop offset="100%" style="stop-color:#ff6347;stop-opacity:0.3" />
    </radialGradient>
    
    <radialGradient id="crystalGlow" cx="50%" cy="50%" r="50%">
      <stop offset="0%" style="stop-color:#40e0d0;stop-opacity:0.8" />
      <stop offset="50%" style="stop-color:#00ced1;stop-opacity:0.5" />
      <stop offset="100%" style="stop-color:#4682b4;stop-opacity:0.2" />
    </radialGradient>
    
    <filter id="blur">
      <feGaussianBlur stdDeviation="2"/>
    </filter>
    
    <filter id="glow">
      <feGaussianBlur stdDeviation="4" result="coloredBlur"/>
      <feMerge> 
        <feMergeNode in="coloredBlur"/>
        <feMergeNode in="SourceGraphic"/>
      </feMerge>
    </filter>
  </defs>
  
  <!-- Night sky background -->
  <rect width="1920" height="1080" fill="url(#nightSky)" />
  
  <!-- Moon and moonlight -->
  <circle cx="1536" cy="162" r="80" fill="#fff8dc" opacity="0.9" />
  <circle cx="1536" cy="162" r="85" fill="none" stroke="#daa520" stroke-width="2" opacity="0.5" />
  <ellipse cx="1536" cy="162" rx="200" ry="150" fill="url(#moonGlow)" />
  
  <!-- Stars scattered across sky -->
  <circle cx="200" cy="100" r="1.5" fill="#fff8dc" opacity="0.8">
    <animate attributeName="opacity" values="0.8;0.3;0.8" dur="3s" repeatCount="indefinite" />
  </circle>
  <circle cx="400" cy="80" r="1" fill="#fff8dc" opacity="0.6">
    <animate attributeName="opacity" values="0.6;0.2;0.6" dur="4s" repeatCount="indefinite" />
  </circle>
  <circle cx="800" cy="120" r="1.2" fill="#fff8dc" opacity="0.7">
    <animate attributeName="opacity" values="0.7;0.3;0.7" dur="5s" repeatCount="indefinite" />
  </circle>
  <circle cx="1200" cy="90" r="1" fill="#fff8dc" opacity="0.5">
    <animate attributeName="opacity" values="0.5;0.2;0.5" dur="3.5s" repeatCount="indefinite" />
  </circle>
  <circle cx="300" cy="200" r="1.3" fill="#fff8dc" opacity="0.6">
    <animate attributeName="opacity" values="0.6;0.2;0.6" dur="4.5s" repeatCount="indefinite" />
  </circle>
  
  <!-- Ancient castle silhouette -->
  <rect x="1200" y="400" width="120" height="400" fill="url(#castleGrad)" />
  <rect x="1220" y="350" width="80" height="50" fill="url(#castleGrad)" />
  <polygon points="1220,350 1260,320 1300,350" fill="url(#castleGrad)" />
  
  <!-- Castle towers -->
  <rect x="1160" y="300" width="40" height="200" fill="url(#castleGrad)" />
  <polygon points="1160,300 1180,280 1200,300" fill="url(#castleGrad)" />
  <rect x="1320" y="320" width="50" height="180" fill="url(#castleGrad)" />
  <polygon points="1320,320 1345,295 1370,320" fill="url(#castleGrad)" />
  
  <!-- Castle windows with warm light -->
  <rect x="1240" y="450" width="15" height="20" fill="#ffa500" opacity="0.8">
    <animate attributeName="opacity" values="0.8;0.5;0.8" dur="6s" repeatCount="indefinite" />
  </rect>
  <rect x="1265" y="480" width="15" height="20" fill="#ffa500" opacity="0.6">
    <animate attributeName="opacity" values="0.6;0.3;0.6" dur="7s" repeatCount="indefinite" />
  </rect>
  
  <!-- Dense forest silhouettes -->
  <polygon points="0,1080 0,600 100,580 150,620 200,600 250,640 300,620 350,660 400,640 450,680 500,660 550,700 600,680 650,720 700,700 750,740 800,720 850,760 900,740 950,780 1000,760 1050,800 1100,780 1150,750 1200,400 1920,400 1920,1080" 
           fill="url(#forestGrad)" />
  
  <!-- Individual tree silhouettes for depth -->
  <ellipse cx="150" cy="620" rx="25" ry="40" fill="#1a0f0a" opacity="0.9" />
  <rect x="140" y="620" width="20" height="60" fill="#0f0a08" />
  
  <ellipse cx="400" cy="680" rx="30" ry="50" fill="#1a0f0a" opacity="0.8" />
  <rect x="385" y="680" width="30" height="80" fill="#0f0a08" />
  
  <ellipse cx="700" cy="740" rx="35" ry="60" fill="#1a0f0a" opacity="0.7" />
  <rect x="680" y="740" width="40" height="100" fill="#0f0a08" />
  
  <!-- Magical crystals emerging from ground -->
  <polygon points="300,950 320,850 340,950" fill="#40e0d0" opacity="0.6" filter="url(#glow)">
    <animate attributeName="opacity" values="0.6;0.9;0.6" dur="4s" repeatCount="indefinite" />
  </polygon>
  <polygon points="800,980 815,900 830,980" fill="#00ced1" opacity="0.5" filter="url(#glow)">
    <animate attributeName="opacity" values="0.5;0.8;0.5" dur="5s" repeatCount="indefinite" />
  </polygon>
  
  <!-- Campfire with embers -->
  <ellipse cx="600" cy="950" rx="20" ry="8" fill="#8b4513" />
  <polygon points="590,950 595,920 600,950" fill="#ff4500" opacity="0.8">
    <animate attributeName="opacity" values="0.8;0.4;0.8" dur="2s" repeatCount="indefinite" />
  </polygon>
  <polygon points="600,950 605,915 610,950" fill="#ffa500" opacity="0.9">
    <animate attributeName="opacity" values="0.9;0.5;0.9" dur="1.8s" repeatCount="indefinite" />
  </polygon>
  <polygon points="595,950 600,925 605,950" fill="#ff6347" opacity="0.7">
    <animate attributeName="opacity" values="0.7;0.3;0.7" dur="2.2s" repeatCount="indefinite" />
  </polygon>
  
  <!-- Fire embers floating up -->
  <circle cx="595" cy="900" r="2" fill="#ff4500" opacity="0.6">
    <animate attributeName="cy" values="900;850;800" dur="3s" repeatCount="indefinite" />
    <animate attributeName="opacity" values="0.6;0.3;0" dur="3s" repeatCount="indefinite" />
  </circle>
  <circle cx="608" cy="910" r="1.5" fill="#ffa500" opacity="0.5">
    <animate attributeName="cy" values="910;860;810" dur="3.5s" repeatCount="indefinite" />
    <animate attributeName="opacity" values="0.5;0.2;0" dur="3.5s" repeatCount="indefinite" />
  </circle>
  
  <!-- Floating wisps -->
  <circle cx="200" cy="400" r="4" fill="#40e0d0" opacity="0.7" filter="url(#glow)">
    <animate attributeName="cx" values="200;250;200" dur="8s" repeatCount="indefinite" />
    <animate attributeName="cy" values="400;380;400" dur="6s" repeatCount="indefinite" />
  </circle>
  
  <circle cx="1000" cy="350" r="3" fill="#98fb98" opacity="0.6" filter="url(#glow)">
    <animate attributeName="cx" values="1000;1050;1000" dur="10s" repeatCount="indefinite" />
    <animate attributeName="cy" values="350;330;350" dur="7s" repeatCount="indefinite" />
  </circle>
  
  <!-- Ground fog -->
  <ellipse cx="960" cy="1050" rx="900" ry="50" fill="#2c1810" opacity="0.4" />
  <ellipse cx="400" cy="1060" rx="600" ry="40" fill="#1a0f0a" opacity="0.5" />
  
  <!-- Distant mountain peaks -->
  <polygon points="0,500 200,450 400,480 600,420 800,460 1000,400 1200,440 1920,400 1920,500 0,500" 
           fill="#0f0a08" opacity="0.6" />
</svg>